<svg xmlns="http://www.w3.org/2000/svg" width="1024" height="1024"><path fill-opacity=".016" d="M0 512.001v512.001l512.25-.251 512.25-.251.251-511.75.251-511.75H0v512.001m.496.499c0 281.6.114 396.651.254 255.668.14-140.982.14-371.382 0-512C.61 115.551.496 230.9.496 512.5" fill="#1976D2" fill-rule="evenodd"/><path fill-opacity=".187" d="M0 512.001v512.001l512.25-.251 512.25-.251.251-511.75.251-511.75H0v512.001m.496.499c0 281.6.114 396.651.254 255.668.14-140.982.14-371.382 0-512C.61 115.551.496 230.9.496 512.5M481 241.981v24.981l-2.25.465c-1.238.255-8.55 2.006-16.25 3.891C399.926 286.633 356.963 323.415 340.228 376c-8.333 26.182-9.368 59.409-2.675 85.816 4.888 19.285 18.706 42.127 33.492 55.365 23.213 20.783 44.194 31.152 103.809 51.302 56.985 19.261 65.914 24.252 67.783 37.887.797 5.816-1.608 12.586-5.693 16.024-1.602 1.348-5.331 3.355-8.287 4.461-30.139 11.277-83.092-4.245-118.304-34.678-3.931-3.397-7.384-6.177-7.674-6.177-.29 0-22.414 23.221-49.165 51.603-47.822 50.737-48.607 51.636-46.826 53.612 3.057 3.391 21.264 16.273 32.056 22.682 36.717 21.801 79.444 36.656 118.256 41.113 5.225.6 10.962 1.313 12.75 1.586l3.25.495V808h69v-50.909l3.25-.489c1.788-.268 6.85-.99 11.25-1.603 35.015-4.882 68.393-18.899 93.138-39.113 20.666-16.883 40.226-45.22 48.238-69.886 7.79-23.98 10.026-55.482 5.596-78.835-7.197-37.937-33.91-68.962-79.171-91.947-15.933-8.092-28.278-12.826-71.954-27.595-20.434-6.909-39.784-13.724-43-15.145-10.508-4.64-15.422-11.876-13.844-20.387 1.146-6.189 4.133-9.79 10.809-13.031 14.823-7.197 39.209-6.759 61.502 1.106 17.91 6.318 29.582 13.372 42.238 25.525l8.552 8.212 49.948-50.005 49.948-50.006-3-2.513c-27.603-23.129-55.068-38.249-91.5-50.373-24.496-8.152-34.172-10.178-69.75-14.6l-4.25-.529V217h-69v24.981" fill="#1976D2" fill-rule="evenodd"/><path fill-opacity=".544" d="M0 512.001v512.001l512.25-.251 512.25-.251.251-511.75.251-511.75H0v512.001m.496.499c0 281.6.114 396.651.254 255.668.14-140.982.14-371.382 0-512C.61 115.551.496 230.9.496 512.5M480 241.929v24.929l-5.75 1.129c-9.658 1.895-26.887 6.845-37.08 10.652-57.985 21.658-94.123 64.288-102.693 121.141-1.885 12.502-1.878 36.979.012 49.523 5.812 38.553 30.226 70.405 70.511 91.994 14.774 7.917 35.667 16.214 68.385 27.157 17.448 5.835 35.091 11.947 39.207 13.582 16.133 6.409 24.842 12.036 27.959 18.063 1.948 3.766 1.843 13.269-.194 17.561-4.814 10.145-29.335 15.088-53.735 10.833-25.922-4.52-58.094-20.229-77.021-37.609l-6.9-6.335-4.6 5.098c-2.531 2.803-24.484 26.192-48.784 51.975-24.301 25.783-44.302 47.328-44.446 47.878-.409 1.56 20.279 16.66 34.225 24.981 37.345 22.283 80.725 37.004 122.654 41.624l11.25 1.24V808h70v-50.804l6.25-.675c11.825-1.277 30.837-5.553 44.031-9.903 44.161-14.559 76.733-41.863 96.682-81.045 10.168-19.972 14.798-39.156 15.706-65.073.922-26.326-1.911-42.235-10.686-60-15.665-31.712-48.105-58.141-93.11-75.854-6.395-2.517-28.445-10.246-49-17.176-20.555-6.93-40.607-14.149-44.56-16.042-8.643-4.14-11.501-7.652-12.099-14.866-1.045-12.591 7.141-19.117 27.222-21.703 29.218-3.764 67.85 10.775 89.522 33.69l5.181 5.478 50.387-49.745 50.387-49.745-2.206-2.378c-3.588-3.865-23.497-18.501-33.209-24.414-36.758-22.376-83.017-37.626-125.248-41.288l-8.25-.715V217h-70v24.929" fill="#1976D2" fill-rule="evenodd"/><path fill-opacity=".366" d="M0 512.001v512.001l512.25-.251 512.25-.251.251-511.75.251-511.75H0v512.001m.496.499c0 281.6.114 396.651.254 255.668.14-140.982.14-371.382 0-512C.61 115.551.496 230.9.496 512.5m479.501-270.75l-.003 24.75-10.747 2.303c-13.919 2.983-35.106 10.139-47.747 16.127-19.779 9.37-33.925 19.499-48.598 34.797C351.5 342.041 338.33 369.495 333.913 401c-1.762 12.572-1.506 38.631.492 49.961 7.181 40.734 31.847 71.206 75.095 92.772 16.426 8.191 33.011 14.737 59 23.287 39.64 13.042 58.032 20.47 66.311 26.785 4.403 3.358 7.189 9.051 7.189 14.687 0 9.682-4.717 15.102-16.317 18.749-6.005 1.889-9.397 2.254-20.683 2.228-21.579-.049-35.877-3.826-60.5-15.979-14.556-7.185-29.079-16.912-37.769-25.296l-3.768-3.637-5.878 5.972c-3.232 3.284-25.505 26.842-49.496 52.351-36.867 39.201-43.426 46.612-42.372 47.881 1.946 2.345 15.504 12.452 24.827 18.508 39.365 25.568 91.182 43.779 134.706 47.343l8.25.676v51.738l34.75-.263 34.75-.263.267-25.608.266-25.608 7.014-.652c24.718-2.297 59.111-13.56 80.27-26.288 37.237-22.397 63.677-59.152 72.761-101.145 3.001-13.877 3.828-46.032 1.53-59.516-5.676-33.295-25.375-60.939-59.108-82.948-22.339-14.574-37.207-20.929-92.69-39.617-36.817-12.4-47.592-16.656-51.668-20.409-7.832-7.21-6.269-20.62 3.038-26.075 6.285-3.683 16.429-5.728 28.694-5.783 28.01-.128 56.361 11.461 76.811 31.398l8.186 7.979 2.814-2.049c1.548-1.128 24.415-23.698 50.815-50.156l48-48.105-3.5-2.985c-14.339-12.229-34.849-25.819-51.861-34.363-31.367-15.754-73.074-27.785-104.758-30.221l-8.381-.644V217h-71l-.003 24.75" fill="#1976D2" fill-rule="evenodd"/></svg>